<svg xmlns="http://www.w3.org/2000/svg" width="33.435" height="26" viewBox="317 39 33.435 26"><path d="m333.274 45.745-10.701 8.814v9.512c0 .513.416.929.929.929l6.504-.017a.929.929 0 0 0 .924-.928v-5.556c0-.513.416-.928.929-.928h3.714c.513 0 .929.415.929.928v5.551a.929.929 0 0 0 .929.932l6.502.018a.929.929 0 0 0 .928-.929v-9.519l-10.699-8.807a.708.708 0 0 0-.888 0Zm16.904 5.99-4.852-4v-8.038a.697.697 0 0 0-.697-.697h-3.25a.697.697 0 0 0-.697.697v4.214l-5.196-4.275a2.786 2.786 0 0 0-3.54 0l-14.693 12.1a.697.697 0 0 0-.093.98l1.48 1.8a.697.697 0 0 0 .982.094l13.652-11.245a.708.708 0 0 1 .888 0l13.654 11.245a.697.697 0 0 0 .98-.092l1.48-1.8a.697.697 0 0 0-.098-.982Z" fill="#fff" fill-rule="evenodd" data-name="home-solid"/></svg>