<svg xmlns="http://www.w3.org/2000/svg" width="332" height="332" viewBox="41 281.95 332 332"><g data-name="cinema"><g data-name="Grupo 128"><g data-name="Grupo 127"><g data-name="Grupo 126"><g data-name="Grupo 125"><g data-name="Grupo 124"><g data-name="Grupo 123"><g data-name="Grupo 122"><g data-name="Grupo 121"><g data-name="Grupo 120"><g data-name="Grupo 119"><g data-name="Grupo 118"><g data-name="Grupo 117"><g data-name="Grupo 116"><g data-name="Grupo 115"><path d="M41 447.9a166 166 0 1 1 0 .1z" fill="#6c67d2" fill-rule="evenodd" data-name="Elipse 108"/></g></g></g></g></g></g></g></g></g></g></g></g></g></g><path d="M258.751 374.603 246.26 362.11l-.715.715-14.54-14.54-2.516 2.516-15.24-15.24-73.715 184.131-21.813 28.277 63.748 63.749a167.114 167.114 0 0 0 25.355 1.927c80.765 0 148.032-57.744 162.798-134.196L261.762 371.592l-3.01 3.01Z" fill="#534dca" fill-rule="evenodd" data-name="Trazado 2162"/><path d="M204.007 331.358c-6.792-.383-13.018 4.245-14.422 11.107a13.924 13.924 0 0 0-.197 4.312c-6.211.298-11.675 4.741-12.978 11.113a13.865 13.865 0 0 0 1.243 9.113 13.88 13.88 0 0 0-2.209-2.897c-5.442-5.442-14.266-5.442-19.709 0a13.852 13.852 0 0 0-3.91 7.775c-3.763 2.496-6.247 6.765-6.247 11.619 0 1.488.238 2.92.67 4.263-6.025 1.538-10.487 6.985-10.487 13.49 0 7.696 6.24 13.935 13.936 13.935a13.89 13.89 0 0 0 9.817-4.047 13.89 13.89 0 0 0 9.818 4.047c4.076 0 7.731-1.76 10.28-4.55.873.306 1.79.53 2.743.66a13.89 13.89 0 0 0 10.273-2.688 13.893 13.893 0 0 0 11.379 5.458l7.104-38.747-7.104-43.963Z" fill="#fd5" fill-rule="evenodd" data-name="Trazado 2163"/><g data-name="Grupo 129"><path d="M288.864 523.181c.3-1.008.455-2.077.43-3.185-.123-5.73-4.868-10.274-10.598-10.15-5.73.123-10.274 4.868-10.15 10.598a10.36 10.36 0 0 0 .567 3.164c-4.46 1.24-7.695 5.367-7.59 10.21.123 5.73 4.868 10.274 10.598 10.15a10.342 10.342 0 0 0 7.243-3.171 10.342 10.342 0 0 0 7.373 2.856c5.73-.124 10.275-4.869 10.15-10.599-.104-4.842-3.513-8.825-8.023-9.873Z" fill="#edbe00" fill-rule="evenodd" data-name="Trazado 2164"/><path d="M310.995 530.947a8.524 8.524 0 1 0-11.72-11.225c-3.311-1.87-7.587-1.352-10.339 1.52a8.525 8.525 0 0 0 6.31 14.418 8.524 8.524 0 0 0 14.676 5.681c2.75-2.871 3.084-7.165 1.073-10.394Z" fill="#edbe00" fill-rule="evenodd" data-name="Trazado 2165"/><path d="M264.253 387.236a13.926 13.926 0 0 0 1.24-4.135c1.037-7.627-4.304-14.65-11.931-15.688a13.917 13.917 0 0 0-3.902.029c-2.144-6.082-8.088-9.741-14.247-9.246a13.928 13.928 0 0 0-.748-4.25c-2.47-7.212-10.265-11.079-17.488-8.73-.013-6.47-4.556-12.264-11.145-13.61a14.046 14.046 0 0 0-2.025-.247v82.71a13.865 13.865 0 0 0 5.901-1.463c.596.164 1.203.305 1.833.39 3.795.517 7.44-.548 10.274-2.687a13.893 13.893 0 0 0 9.182 5.335c4.925.67 9.589-1.33 12.561-4.879a13.966 13.966 0 0 0 4.2-2.153 13.893 13.893 0 0 0 9.18 5.335c7.627 1.037 14.65-4.304 15.689-11.93.876-6.447-2.81-12.446-8.574-14.781Z" fill="#edbe00" fill-rule="evenodd" data-name="Trazado 2166"/><path d="M194.942 383.902a9.071 9.071 0 0 0-1.647-14.567 9.071 9.071 0 0 0-13.364 6.026c-3.904-1.07-8.182.576-10.276 4.256a9.071 9.071 0 0 0 10.256 13.24 9.071 9.071 0 0 0 16.622 2.051c2.094-3.678 1.323-8.197-1.591-11.006Z" fill="#edbe00" fill-rule="evenodd" data-name="Trazado 2167"/></g><path d="M237.272 407.581a9.072 9.072 0 1 0 8.299-15.146c1.007-3.92-.707-8.171-4.42-10.206a9.072 9.072 0 0 0-13.075 10.468 9.071 9.071 0 0 0-1.785 16.652c3.714 2.035 8.219 1.191 10.98-1.768Z" fill="#ff9e22" fill-rule="evenodd" data-name="Trazado 2168"/><path d="M190.637 543.97H163.81l-6.478-72.177 6.478-64.545 13.413-7.632 13.414 7.632 6.478 64.545-6.478 72.177Z" fill="#fff" fill-rule="evenodd" data-name="Trazado 2169"/><path d="M244.29 543.97h-26.827l-6.477-72.177 6.477-64.545 13.414-7.632 13.413 7.632 6.478 64.545-6.478 72.177Z" fill="#e6e6ff" fill-rule="evenodd" data-name="Trazado 2170"/><g data-name="Grupo 130"><path d="M163.81 543.97h-26.826V407.248l13.413-7.632 13.413 7.632V543.97Z" fill="#ff5b5b" fill-rule="evenodd" data-name="Trazado 2171"/><path d="M204.007 543.97h-13.37V407.248l13.413-7.632 7.06 72.177-7.103 72.177Z" fill="#ff5b5b" fill-rule="evenodd" data-name="Trazado 2172"/><path d="M271.117 543.97H244.29V407.248l13.413-7.632 13.414 7.632V543.97Z" fill="#c8001c" fill-rule="evenodd" data-name="Trazado 2173"/></g><path d="M142.505 530.405c.325-1.012.505-2.088.505-3.208 0-5.792-4.695-10.487-10.487-10.487s-10.487 4.695-10.487 10.487c0 1.12.18 2.196.504 3.208-4.534 1.157-7.891 5.256-7.891 10.15 0 5.792 4.695 10.487 10.487 10.487 2.882 0 5.491-1.164 7.387-3.046a10.45 10.45 0 0 0 7.388 3.046c5.791 0 10.487-4.695 10.487-10.487-.001-4.895-3.359-8.994-7.893-10.15Z" fill="#fd5" fill-rule="evenodd" data-name="Trazado 2174"/><path d="M179.633 562.943c1.06.09 2.149.023 3.24-.228 5.645-1.299 9.167-6.928 7.868-12.572-1.3-5.645-6.928-9.167-12.572-7.868-1.092.251-2.1.667-3.014 1.211-2.144-4.159-6.892-6.511-11.66-5.414-5.645 1.3-9.168 6.928-7.868 12.573a10.451 10.451 0 0 0 4.625 6.515 10.453 10.453 0 0 0-1.312 7.883c1.3 5.644 6.928 9.167 12.573 7.867 4.769-1.098 8.01-5.29 8.12-9.967Z" fill="#fd5" fill-rule="evenodd" data-name="Trazado 2175"/><path d="M217.463 543.97h-13.456l.043-144.354 13.413 7.632V543.97Z" fill="#c8001c" fill-rule="evenodd" data-name="Trazado 2176"/></g></svg>