<svg xmlns="http://www.w3.org/2000/svg" width="26.995" height="27" viewBox="367.54 39 26.995 27"><path d="m394.168 62.343-5.257-5.257a1.265 1.265 0 0 0-.896-.369h-.86a10.914 10.914 0 0 0 2.32-6.75c0-6.058-4.909-10.967-10.967-10.967-6.059 0-10.968 4.91-10.968 10.968s4.91 10.967 10.968 10.967c2.547 0 4.888-.864 6.75-2.32v.86c0 .337.13.659.368.896l5.257 5.257a1.26 1.26 0 0 0 1.788 0l1.492-1.492a1.271 1.271 0 0 0 .005-1.793Zm-15.66-5.626a6.745 6.745 0 0 1-6.75-6.75 6.745 6.745 0 0 1 6.75-6.749 6.745 6.745 0 0 1 6.75 6.75 6.745 6.745 0 0 1-6.75 6.749Z" fill="#c48900" fill-rule="evenodd" data-name="search-solid"/></svg>