<svg xmlns="http://www.w3.org/2000/svg" width="23.766" height="22.667" viewBox="0 0.835 23.766 22.667"><path d="M23.734 9.444a.662.662 0 0 0-.56-.453l-7.606-.77-3.083-6.994a.656.656 0 0 0-1.204.001L8.197 8.221l-7.604.77A.658.658 0 0 0 .22 10.14l5.697 5.092L4.3 22.703a.659.659 0 0 0 .976.709l6.606-3.845 6.604 3.845a.653.653 0 0 0 .72-.036.66.66 0 0 0 .256-.672l-1.615-7.47 5.697-5.094a.658.658 0 0 0 .19-.696Zm-7.048 5.06a.652.652 0 0 0-.206.631l1.383 6.387-5.646-3.286-.002-.001V3.872l2.306 5.23a.66.66 0 0 0 .536.39l6.498.66-4.87 4.353Z" fill="#c48900" fill-rule="evenodd" data-name="Trazado 2160"/></svg>