<svg xmlns="http://www.w3.org/2000/svg" width="22.665" height="22.667"><path d="M22.25 8.069a1.64 1.64 0 0 0-1-.534l-6.024-.833-2.384-5.696a1.636 1.636 0 0 0-3.02 0L7.44 6.702l-6.024.833a1.64 1.64 0 0 0-.866 2.85l4.54 4.047-.933 6.351a1.619 1.619 0 0 0 .75 1.63c.549.35 1.254.337 1.789-.033l4.637-3.154 4.638 3.157a1.638 1.638 0 0 0 2.54-1.596l-.933-6.354 4.539-4.047a1.64 1.64 0 0 0 .133-2.317Zm-6.077 5.45a.81.81 0 0 0-.261.721l.971 6.8-5.093-3.463a.81.81 0 0 0-.91 0L5.757 21.02l.996-6.782a.81.81 0 0 0-.261-.719L1.635 9.141l6.482-.895a.81.81 0 0 0 .636-.49l2.59-6.137a.036.036 0 0 1 .006.012l2.562 6.122a.81.81 0 0 0 .636.49l6.49.934-4.864 4.341Z" fill="#c48900" fill-rule="evenodd" data-name="Trazado 2159"/></svg>